# xmcd
#
# Track frame offsets:
# 150
# 13239
# 28544
# 42708
# 54394
# 68567
# 81565
# 92822
# 102929
# 112890
# 126875
# 139762
# 159680
# 170095
# 185207
# 199010
# 211854
# 225178
# 239990
# 252579
# 266452
# 279336
# 298258
# 312255
#
# Disc length: 4330 seconds
#
#
# Revision: 0
# Processed by: cddbd v1.5.2PL0 Copyright (c) Steve Scherf et al.
# Submitted via: FreeRIP 2.945 
#
DISCID=6c10e818
DTITLE=Steinbeck-J1939 - Grapes-Wrath03
DYEAR=1939
DGENRE=National Folk
TTITLE0=GW 0301
TTITLE1=GW 0302
TTITLE2=GW 0303
TTITLE3=GW 0304
TTITLE4=GW 0305
TTITLE5=GW 0306
TTITLE6=GW 0307
TTITLE7=GW 0308
TTITLE8=GW 0309
TTITLE9=GW 0310
TTITLE10=GW 0311
TTITLE11=GW 0312
TTITLE12=GW 0313
TTITLE13=GW 0314
TTITLE14=GW 0315
TTITLE15=GW 0316
TTITLE16=GW 0317
TTITLE17=GW 0318
TTITLE18=GW 0319
TTITLE19=GW 0320
TTITLE20=GW 0321
TTITLE21=GW 0322
TTITLE22=GW 0323
TTITLE23=GW 0324
EXTD=The Grapes of Wrath by John Steinbeck\nread by Dylan Baker recorded books 18 CDs\nnational folk
EXTT0=
EXTT1=
EXTT2=
EXTT3=
EXTT4=
EXTT5=
EXTT6=
EXTT7=
EXTT8=
EXTT9=
EXTT10=
EXTT11=
EXTT12=
EXTT13=
EXTT14=
EXTT15=
EXTT16=
EXTT17=
EXTT18=
EXTT19=
EXTT20=
EXTT21=
EXTT22=
EXTT23=
PLAYORDER=
